<svg width="870" height="264" viewBox="0 0 870 264" fill="none" xmlns="http://www.w3.org/2000/svg">
<path fill-rule="evenodd" clip-rule="evenodd" d="M210.53 119.749L159.131 170.662L206.71 218.83C231.693 244.122 272.198 244.122 297.181 218.83L300.08 215.895C325.063 190.603 325.063 149.597 300.08 124.305L295.58 119.749C261.131 88.0928 226.615 104.213 210.53 119.749Z" fill="#FFEE00"/>
<path d="M108.842 119.751L159.132 170.663L111.552 218.831C86.569 244.123 46.0642 244.123 21.0818 218.831L18.7369 216.458C-6.24565 191.166 -6.24565 150.16 18.7369 124.868L23.792 119.751C57.0723 88.3049 94.0505 103.279 108.842 119.751Z" fill="#FFB800"/>
<path d="M159.131 170.662L108.841 119.75C94.0495 103.278 57.0713 88.3039 23.791 119.75L114.45 27.9688C139.433 2.67707 179.937 2.67707 204.92 27.9688L295.58 119.75C261.131 88.0932 226.615 104.214 210.53 119.75L159.131 170.662Z" fill="#FFD600"/>
<path d="M393.705 23.209L393.931 17.3278H401.471V54.5H394.082L393.705 48.468C392.549 50.73 390.739 52.4642 388.276 53.6706C385.864 54.877 383.4 55.4802 380.887 55.4802C375.308 55.5305 370.733 53.8214 367.164 50.353C363.595 46.8846 361.811 42.059 361.811 35.8762C361.811 29.8442 363.621 25.1191 367.24 21.701C370.909 18.2326 375.509 16.4984 381.038 16.4984C383.702 16.4984 386.19 17.1016 388.503 18.308C390.815 19.5144 392.549 21.1481 393.705 23.209ZM381.641 23.586C378.223 23.586 375.358 24.717 373.046 26.979C370.733 29.1907 369.577 32.1565 369.577 35.8762C369.577 39.5959 370.733 42.5868 373.046 44.8488C375.358 47.1108 378.223 48.2418 381.641 48.2418C383.853 48.2418 385.813 47.7894 387.522 46.8846C389.282 45.9798 390.589 44.7985 391.443 43.3408C392.348 41.8831 393.001 40.2997 393.404 38.5906C393.856 36.8313 393.856 35.0719 393.404 33.3126C393.001 31.5533 392.348 29.9447 391.443 28.487C390.589 27.0293 389.282 25.848 387.522 24.9432C385.813 24.0384 383.853 23.586 381.641 23.586ZM426.108 30.5982L434.326 17.3278H443.751V17.554L431.235 35.5746L444.581 54.2738V54.5H435.231L426.108 41.0034L416.984 54.5H407.635V54.2738L420.98 35.5746L408.464 17.554V17.3278H417.814L426.108 30.5982ZM452.28 22.078C455.849 18.4085 460.474 16.5738 466.154 16.5738C471.834 16.5738 476.459 18.4337 480.028 22.1534C483.647 25.8229 485.456 30.4223 485.456 35.9516C485.456 41.5312 483.672 46.1557 480.103 49.8252C476.584 53.4444 471.935 55.254 466.154 55.254C460.424 55.254 455.799 53.4444 452.28 49.8252C448.762 46.1557 447.002 41.5312 447.002 35.9516C447.002 30.372 448.762 25.7475 452.28 22.078ZM466.154 23.7368C462.736 23.7368 459.971 24.9181 457.86 27.2806C455.799 29.6431 454.769 32.5335 454.769 35.9516C454.769 39.3697 455.799 42.2349 457.86 44.5472C459.921 46.8595 462.686 48.0156 466.154 48.0156C469.622 48.0156 472.387 46.8595 474.448 44.5472C476.559 42.2349 477.615 39.3697 477.615 35.9516C477.615 32.5837 476.534 29.7185 474.373 27.356C472.211 24.9432 469.472 23.7368 466.154 23.7368ZM529.708 54.5H521.866V34.5944C521.866 31.3271 520.987 28.7383 519.227 26.8282C517.468 24.8678 515.005 23.8876 511.838 23.8876C508.822 23.8876 506.334 24.9683 504.373 27.1298C502.413 29.2913 501.433 31.9303 501.433 35.0468V54.5H493.667V17.2524H500.754L501.207 22.6812C504.725 18.7101 508.897 16.7246 513.723 16.7246C518.398 16.7246 522.218 18.308 525.184 21.4748C528.2 24.6416 529.708 28.9897 529.708 34.519V54.5ZM547.453 17.177V54.5H539.687V17.177H547.453ZM538.782 6.3948C538.782 8.40546 539.587 9.83806 541.195 10.6926C542.804 11.4969 544.412 11.4969 546.021 10.6926C547.629 9.83806 548.434 8.40546 548.434 6.3948C548.434 4.38413 547.629 2.97666 546.021 2.1724C544.412 1.36813 542.804 1.36813 541.195 2.1724C539.587 2.97666 538.782 4.38413 538.782 6.3948ZM584.186 44.4718L589.464 49.6744C585.543 53.5449 580.843 55.4802 575.364 55.4802C569.734 55.4802 565.059 53.7711 561.339 50.353C557.62 46.9349 555.76 42.1344 555.76 35.9516C555.76 29.7688 557.62 24.9683 561.339 21.5502C565.059 18.1321 569.734 16.423 575.364 16.423C580.591 16.423 585.065 18.2577 588.785 21.9272L583.809 27.1298C581.547 24.9181 578.757 23.8122 575.439 23.8122C572.021 23.8122 569.181 24.9432 566.919 27.2052C564.657 29.4169 563.526 32.3324 563.526 35.9516C563.526 39.7216 564.657 42.6622 566.919 44.7734C569.181 46.8846 571.996 47.9402 575.364 47.9402C578.983 47.9402 581.924 46.7841 584.186 44.4718Z" fill="#00003B"/>
<path d="M457.543 204.364L463.159 209.668C452.239 220.588 438.979 226.048 423.379 226.048C405.803 226.048 392.075 220.744 382.195 210.136C372.315 199.528 367.323 186.424 367.219 170.824C367.115 160.84 369.091 151.636 373.147 143.212C377.203 134.788 383.599 127.872 392.335 122.464C401.071 117.056 411.419 114.352 423.379 114.352C438.979 114.352 452.239 119.812 463.159 130.732L457.387 135.724C448.131 126.468 436.795 121.84 423.379 121.84C408.091 121.84 396.235 126.52 387.811 135.88C379.387 145.136 375.227 156.68 375.331 170.512C375.539 184.032 379.803 195.368 388.123 204.52C396.547 213.672 408.299 218.248 423.379 218.248C436.691 218.248 448.079 213.62 457.543 204.364ZM499.486 115.6H507.13V224.8H499.486V115.6ZM556.677 147.424V224.8H549.033V147.424H556.677ZM546.849 122.62C546.849 124.492 547.473 126 548.721 127.144C550.073 128.184 551.477 128.704 552.933 128.704C554.493 128.704 555.897 128.184 557.145 127.144C558.497 126 559.173 124.492 559.173 122.62C559.173 120.748 558.497 119.292 557.145 118.252C555.897 117.108 554.493 116.536 552.933 116.536C551.477 116.536 550.073 117.108 548.721 118.252C547.473 119.292 546.849 120.748 546.849 122.62ZM597.54 147.736H605.028V161.464C610.54 151.584 619.692 146.54 632.484 146.332C642.884 146.332 651.256 149.4 657.6 155.536C664.048 161.568 667.272 169.836 667.272 180.34V224.8H659.628V180.496C659.628 171.864 657.184 165.26 652.296 160.684C647.408 156.004 640.7 153.716 632.172 153.82C624.268 153.924 617.768 156.628 612.672 161.932C607.68 167.236 605.184 173.892 605.184 181.9V224.8H597.54V147.736ZM714.78 147.424V224.8H707.136V147.424H714.78ZM704.952 122.62C704.952 124.492 705.576 126 706.824 127.144C708.176 128.184 709.58 128.704 711.036 128.704C712.596 128.704 714 128.184 715.248 127.144C716.6 126 717.276 124.492 717.276 122.62C717.276 120.748 716.6 119.292 715.248 118.252C714 117.108 712.596 116.536 711.036 116.536C709.58 116.536 708.176 117.108 706.824 118.252C705.576 119.292 704.952 120.748 704.952 122.62ZM805.74 114.196C823.316 114.196 836.888 119.604 846.456 130.42C856.128 141.132 860.912 154.392 860.808 170.2C860.808 184.656 856.544 197.084 848.016 207.484L861.9 220.9L856.596 226.36L842.868 213.256C833.3 221.68 820.924 225.892 805.74 225.892C788.06 225.892 774.384 220.484 764.712 209.668C755.04 198.748 750.308 185.28 750.516 169.264C750.724 153.768 755.612 140.716 765.18 130.108C774.852 119.5 788.372 114.196 805.74 114.196ZM805.74 122.152C792.012 122.152 780.728 126.624 771.888 135.568C763.152 144.512 758.784 155.744 758.784 169.264C758.576 182.992 762.58 194.536 770.796 203.896C779.012 213.256 790.66 217.936 805.74 217.936C820.612 217.936 832.104 213.36 840.216 204.208C848.432 194.952 852.54 183.616 852.54 170.2C852.54 156.576 848.432 145.188 840.216 136.036C832.104 126.78 820.612 122.152 805.74 122.152Z" fill="#00003B"/>
</svg>
