<svg width="146" height="41" viewBox="0 0 146 41" fill="none" xmlns="http://www.w3.org/2000/svg">
<path fill-rule="evenodd" clip-rule="evenodd" d="M35.6283 20.4163L26.93 29.1393L34.9819 37.3922C39.2098 41.7256 46.0645 41.7256 50.2924 37.3922L50.783 36.8893C55.0109 32.556 55.0109 25.5302 50.783 21.1969L50.0214 20.4163C44.1916 14.9925 38.3505 17.7545 35.6283 20.4163Z" fill="#FFEE00"/>
<path d="M18.4195 20.4165L26.93 29.1393L18.8781 37.3924C14.6502 41.7258 7.79552 41.7258 3.56771 37.3924L3.17089 36.9858C-1.05696 32.6524 -1.05696 25.6267 3.17089 21.2933L4.02637 20.4165C9.65845 15.0288 15.9163 17.5943 18.4195 20.4165Z" fill="#FFB800"/>
<path d="M26.93 29.1393L18.4195 20.4165C15.9163 17.5943 9.65845 15.0288 4.02637 20.4165L19.3686 4.69112C23.5964 0.357786 30.4511 0.357786 34.679 4.69112L50.0214 20.4163C44.1916 14.9925 38.3505 17.7545 35.6283 20.4163L26.93 29.1393Z" fill="#FFD600"/>
<path d="M66.6274 3.87561L66.6657 2.86796H67.9417V9.23683H66.6912L66.6274 8.20335C66.4318 8.5909 66.1255 8.88803 65.7087 9.09473C65.3004 9.30143 64.8835 9.40478 64.4582 9.40478C63.514 9.41339 62.7399 9.12057 62.1359 8.52631C61.5319 7.93205 61.2299 7.10526 61.2299 6.04594C61.2299 5.01245 61.5361 4.20288 62.1486 3.61724C62.7696 3.02298 63.548 2.72585 64.4837 2.72585C64.9346 2.72585 65.3557 2.8292 65.747 3.0359C66.1383 3.2426 66.4318 3.5225 66.6274 3.87561ZM64.5858 3.9402C64.0074 3.9402 63.5225 4.13398 63.1312 4.52154C62.7399 4.90049 62.5442 5.40862 62.5442 6.04594C62.5442 6.68326 62.7399 7.19569 63.1312 7.58325C63.5225 7.97081 64.0074 8.16459 64.5858 8.16459C64.9601 8.16459 65.2919 8.08708 65.5811 7.93205C65.8788 7.77703 66.1 7.57464 66.2446 7.32488C66.3977 7.07512 66.5083 6.80383 66.5764 6.51101C66.6529 6.20957 66.6529 5.90814 66.5764 5.6067C66.5083 5.30527 66.3977 5.02967 66.2446 4.77991C66.1 4.53015 65.8788 4.32776 65.5811 4.17274C65.2919 4.01771 64.9601 3.9402 64.5858 3.9402Z" fill="white"/>
<path d="M72.111 5.14163L73.5018 2.86796H75.0968V2.90671L72.9787 5.99426L75.2372 9.19808V9.23683H73.6549L72.111 6.9244L70.567 9.23683H68.9847V9.19808L71.2433 5.99426L69.1251 2.90671V2.86796H70.7074L72.111 5.14163Z" fill="white"/>
<path d="M76.5402 3.68183C77.1442 3.05313 77.9268 2.73877 78.8881 2.73877C79.8493 2.73877 80.6319 3.05743 81.2359 3.69475C81.8484 4.32346 82.1546 5.11149 82.1546 6.05886C82.1546 7.01483 81.8527 7.80717 81.2487 8.43588C80.6532 9.05597 79.8663 9.36602 78.8881 9.36602C77.9183 9.36602 77.1357 9.05597 76.5402 8.43588C75.9447 7.80717 75.647 7.01483 75.647 6.05886C75.647 5.10288 75.9447 4.31054 76.5402 3.68183ZM78.8881 3.96604C78.3096 3.96604 77.8417 4.16843 77.4845 4.57322C77.1357 4.978 76.9613 5.47321 76.9613 6.05886C76.9613 6.6445 77.1357 7.13541 77.4845 7.53158C77.8332 7.92775 78.3011 8.12583 78.8881 8.12583C79.475 8.12583 79.9429 7.92775 80.2917 7.53158C80.6489 7.13541 80.8276 6.6445 80.8276 6.05886C80.8276 5.48182 80.6447 4.99092 80.2789 4.58613C79.9131 4.17274 79.4495 3.96604 78.8881 3.96604Z" fill="white"/>
<path d="M89.6434 9.23683H88.3164V5.82632C88.3164 5.26651 88.1675 4.82298 87.8698 4.4957C87.572 4.15982 87.1552 3.99188 86.6193 3.99188C86.1089 3.99188 85.6878 4.17704 85.356 4.54738C85.0243 4.91771 84.8584 5.36986 84.8584 5.90383V9.23683H83.5441V2.85504H84.7435L84.8201 3.78518C85.4156 3.1048 86.1216 2.76461 86.9383 2.76461C87.7294 2.76461 88.3759 3.0359 88.8778 3.57848C89.3882 4.12106 89.6434 4.86604 89.6434 5.8134V9.23683Z" fill="white"/>
<path d="M92.6465 2.84212V9.23683H91.3322V2.84212H92.6465ZM91.1791 0.99476C91.1791 1.33926 91.3152 1.58471 91.5874 1.73112C91.8596 1.86892 92.1319 1.86892 92.4041 1.73112C92.6763 1.58471 92.8124 1.33926 92.8124 0.99476C92.8124 0.650264 92.6763 0.409116 92.4041 0.271318C92.1319 0.133519 91.8596 0.133519 91.5874 0.271318C91.3152 0.409116 91.1791 0.650264 91.1791 0.99476Z" fill="white"/>
<path d="M98.8628 7.51866L99.756 8.41004C99.0924 9.0732 98.2971 9.40478 97.3698 9.40478C96.4171 9.40478 95.626 9.11195 94.9965 8.52631C94.367 7.94067 94.0522 7.11818 94.0522 6.05886C94.0522 4.99953 94.367 4.17704 94.9965 3.5914C95.626 3.00576 96.4171 2.71294 97.3698 2.71294C98.2545 2.71294 99.0116 3.02729 99.6411 3.65599L98.799 4.54738C98.4162 4.16843 97.944 3.97896 97.3826 3.97896C96.8041 3.97896 96.3235 4.17274 95.9407 4.5603C95.5579 4.93924 95.3665 5.43876 95.3665 6.05886C95.3665 6.70479 95.5579 7.20861 95.9407 7.57033C96.3235 7.93205 96.7999 8.11292 97.3698 8.11292C97.9823 8.11292 98.48 7.91483 98.8628 7.51866Z" fill="white"/>
<path d="M77.4308 34.9137L78.3812 35.8224C76.5332 37.6934 74.2892 38.6289 71.6492 38.6289C68.6748 38.6289 66.3515 37.7201 64.6795 35.9026C63.0075 34.0851 62.1627 31.8399 62.1451 29.1671C62.1275 27.4565 62.4619 25.8795 63.1483 24.4362C63.8347 22.9929 64.9171 21.8079 66.3955 20.8814C67.8739 19.9548 69.6252 19.4915 71.6492 19.4915C74.2892 19.4915 76.5332 20.427 78.3812 22.298L77.4044 23.1533C75.838 21.5674 73.9196 20.7745 71.6492 20.7745C69.062 20.7745 67.0555 21.5763 65.6299 23.18C64.2043 24.7659 63.5003 26.7437 63.5179 29.1136C63.5531 31.4301 64.2747 33.3723 65.6827 34.9404C67.1083 36.5084 69.0972 37.2925 71.6492 37.2925C73.902 37.2925 75.8292 36.4995 77.4308 34.9137Z" fill="white"/>
<path d="M84.5289 19.7053H85.8225V38.415H84.5289V19.7053Z" fill="white"/>
<path d="M94.2075 25.1579V38.415H92.9139V25.1579H94.2075ZM92.5443 20.9081C92.5443 21.2288 92.6499 21.4872 92.8611 21.6832C93.0899 21.8614 93.3275 21.9505 93.5739 21.9505C93.8379 21.9505 94.0755 21.8614 94.2867 21.6832C94.5155 21.4872 94.6299 21.2288 94.6299 20.9081C94.6299 20.5874 94.5155 20.3379 94.2867 20.1597C94.0755 19.9637 93.8379 19.8657 93.5739 19.8657C93.3275 19.8657 93.0899 19.9637 92.8611 20.1597C92.6499 20.3379 92.5443 20.5874 92.5443 20.9081Z" fill="white"/>
<path d="M101.123 25.2113H102.39V27.5634C103.323 25.8706 104.871 25.0064 107.036 24.9708C108.796 24.9708 110.213 25.4964 111.287 26.5477C112.378 27.5812 112.924 28.9978 112.924 30.7975V38.415H111.63V30.8242C111.63 29.3453 111.216 28.2138 110.389 27.4298C109.562 26.6279 108.427 26.2359 106.984 26.2537C105.646 26.2715 104.546 26.7348 103.683 27.6436C102.839 28.5524 102.416 29.6928 102.416 31.0648V38.415H101.123V25.2113Z" fill="white"/>
<path d="M120.963 25.1579V38.415H119.67V25.1579H120.963ZM119.3 20.9081C119.3 21.2288 119.406 21.4872 119.617 21.6832C119.846 21.8614 120.083 21.9505 120.33 21.9505C120.594 21.9505 120.831 21.8614 121.043 21.6832C121.271 21.4872 121.386 21.2288 121.386 20.9081C121.386 20.5874 121.271 20.3379 121.043 20.1597C120.831 19.9637 120.594 19.8657 120.33 19.8657C120.083 19.8657 119.846 19.9637 119.617 20.1597C119.406 20.3379 119.3 20.5874 119.3 20.9081Z" fill="white"/>
<path d="M136.357 19.4648C139.331 19.4648 141.628 20.3914 143.247 22.2445C144.884 24.0798 145.694 26.3517 145.676 29.0602C145.676 31.537 144.954 33.6663 143.511 35.4482L145.861 37.7468L144.963 38.6823L142.64 36.4372C141.021 37.8805 138.926 38.6021 136.357 38.6021C133.365 38.6021 131.05 37.6756 129.414 35.8224C127.777 33.9514 126.976 31.6439 127.011 28.8998C127.046 26.2448 127.874 24.0086 129.493 22.191C131.13 20.3735 133.418 19.4648 136.357 19.4648ZM136.357 20.8279C134.034 20.8279 132.124 21.5941 130.628 23.1265C129.15 24.6589 128.41 26.5834 128.41 28.8998C128.375 31.2519 129.053 33.2298 130.443 34.8335C131.834 36.4372 133.805 37.239 136.357 37.239C138.874 37.239 140.818 36.455 142.191 34.8869C143.582 33.3011 144.277 31.3588 144.277 29.0602C144.277 26.7259 143.582 24.7748 142.191 23.2067C140.818 21.6208 138.874 20.8279 136.357 20.8279Z" fill="white"/>
</svg>
